<?xml version="1.0" encoding="UTF-8" standalone="no"?>
<!-- Created with Inkscape (http://www.inkscape.org/) -->

<svg
   xmlns:osb="http://www.openswatchbook.org/uri/2009/osb"
   xmlns:dc="http://purl.org/dc/elements/1.1/"
   xmlns:cc="http://creativecommons.org/ns#"
   xmlns:rdf="http://www.w3.org/1999/02/22-rdf-syntax-ns#"
   xmlns:svg="http://www.w3.org/2000/svg"
   xmlns="http://www.w3.org/2000/svg"
   xmlns:xlink="http://www.w3.org/1999/xlink"
   xmlns:sodipodi="http://sodipodi.sourceforge.net/DTD/sodipodi-0.dtd"
   xmlns:inkscape="http://www.inkscape.org/namespaces/inkscape"
   width="211.84"
   height="48.950001"
   id="svg2"
   version="1.1"
   inkscape:version="0.48.2 r9819"
   sodipodi:docname="present_Hurray_8.svg">
  <defs
     id="defs4">
    <linearGradient
       id="linearGradient3848">
      <stop
         style="stop-color:#999999;stop-opacity:1;"
         offset="0"
         id="stop3850" />
      <stop
         style="stop-color:#b3b000;stop-opacity:0;"
         offset="1"
         id="stop3852" />
    </linearGradient>
    <linearGradient
       id="linearGradient5385">
      <stop
         style="stop-color:#2b2b2b;stop-opacity:1;"
         offset="0"
         id="stop5387" />
      <stop
         style="stop-color:#2b2b2b;stop-opacity:0;"
         offset="1"
         id="stop5389" />
    </linearGradient>
    <linearGradient
       id="linearGradient5364">
      <stop
         style="stop-color:#2b2b2b;stop-opacity:1;"
         offset="0"
         id="stop5366" />
      <stop
         style="stop-color:#2b2b2b;stop-opacity:1;"
         offset="1"
         id="stop5368" />
    </linearGradient>
    <linearGradient
       id="linearGradient5305">
      <stop
         style="stop-color:#ececec;stop-opacity:1;"
         offset="0"
         id="stop5307" />
      <stop
         id="stop5347"
         offset="0.5125367"
         style="stop-color:#ececec;stop-opacity:1;" />
      <stop
         style="stop-color:#bdbdbd;stop-opacity:1;"
         offset="1"
         id="stop5309" />
    </linearGradient>
    <linearGradient
       id="linearGradient3841"
       osb:paint="gradient">
      <stop
         style="stop-color:#000000;stop-opacity:0;"
         offset="0"
         id="stop3843" />
      <stop
         style="stop-color:#000000;stop-opacity:0;"
         offset="1"
         id="stop3845" />
    </linearGradient>
    <linearGradient
       id="linearGradient3821">
      <stop
         style="stop-color:#ececec;stop-opacity:1;"
         offset="0"
         id="stop3823" />
      <stop
         style="stop-color:#bdbdbd;stop-opacity:1;"
         offset="1"
         id="stop3825" />
    </linearGradient>
    <linearGradient
       id="linearGradient3777">
      <stop
         style="stop-color:#ececec;stop-opacity:1;"
         offset="0"
         id="stop3779" />
      <stop
         style="stop-color:#bdbdbd;stop-opacity:1;"
         offset="1"
         id="stop3781" />
    </linearGradient>
    <radialGradient
       inkscape:collect="always"
       xlink:href="#linearGradient3777"
       id="radialGradient3783"
       cx="490"
       cy="551.03094"
       fx="490"
       fy="551.03094"
       r="150"
       gradientTransform="matrix(0.27649698,0,0,0.05931328,79.453288,478.49736)"
       gradientUnits="userSpaceOnUse" />
    <radialGradient
       inkscape:collect="always"
       xlink:href="#linearGradient3821"
       id="radialGradient3827"
       cx="290"
       cy="316.26462"
       fx="290"
       fy="316.26462"
       r="135.5"
       gradientTransform="matrix(0.29027207,0,0,0.03366339,129.19879,489.55183)"
       gradientUnits="userSpaceOnUse" />
    <radialGradient
       inkscape:collect="always"
       xlink:href="#linearGradient5305"
       id="radialGradient5311"
       cx="255.15456"
       cy="604.40887"
       fx="255.15456"
       fy="604.40887"
       r="180"
       gradientTransform="matrix(0.37518632,0.04374479,-0.00298715,0.05473083,44.203761,466.60392)"
       gradientUnits="userSpaceOnUse" />
    <radialGradient
       inkscape:collect="always"
       xlink:href="#linearGradient5305-8"
       id="radialGradient5311-8"
       cx="60"
       cy="417.71222"
       fx="60"
       fy="417.71222"
       r="180"
       gradientTransform="matrix(1,0,0,0.07369615,0,471.5784)"
       gradientUnits="userSpaceOnUse" />
    <linearGradient
       id="linearGradient5305-8">
      <stop
         style="stop-color:#ececec;stop-opacity:1;"
         offset="0"
         id="stop5307-2" />
      <stop
         style="stop-color:#bdbdbd;stop-opacity:1;"
         offset="1"
         id="stop5309-7" />
    </linearGradient>
  </defs>
  <sodipodi:namedview
     id="base"
     pagecolor="#ffffff"
     bordercolor="#666666"
     borderopacity="1.0"
     inkscape:pageopacity="0.0"
     inkscape:pageshadow="2"
     inkscape:zoom="3.959798"
     inkscape:cx="111.55742"
     inkscape:cy="14.773163"
     inkscape:document-units="px"
     inkscape:current-layer="layer1"
     showgrid="false"
     inkscape:window-width="1600"
     inkscape:window-height="838"
     inkscape:window-x="-8"
     inkscape:window-y="-8"
     inkscape:window-maximized="1"
     borderlayer="false"
     fit-margin-top="0"
     fit-margin-left="0"
     fit-margin-right="0"
     fit-margin-bottom="0">
    <inkscape:grid
       type="xygrid"
       id="grid2985"
       empspacing="5"
       visible="true"
       enabled="true"
       snapvisiblegridlinesonly="true" />
  </sodipodi:namedview>
  <metadata
     id="metadata7">
    <rdf:RDF>
      <cc:Work
         rdf:about="">
        <dc:format>image/svg+xml</dc:format>
        <dc:type
           rdf:resource="http://purl.org/dc/dcmitype/StillImage" />
        <dc:title></dc:title>
      </cc:Work>
    </rdf:RDF>
  </metadata>
  <g
     inkscape:label="Layer 1"
     inkscape:groupmode="layer"
     id="layer1"
     transform="translate(-45.826842,-469.28418)">
    <path
       style="fill:url(#radialGradient3783);fill-opacity:1;stroke:none"
       d="m 173.46224,502.11594 c 0,15.10809 41.47456,15.10809 41.47456,15.10809 0,0 -41.47456,0 0,0 41.47453,0 41.47453,-15.10809 41.47453,-15.10809 0,0 0,-6.04326 0,0 0,6.04318 -41.47453,6.04318 -41.47453,6.04318 0,0 41.47453,0 0,0 -41.47456,0 -41.47456,-6.04318 -41.47456,-6.04318 z"
       id="path3007"
       inkscape:connector-curvature="0" />
    <path
       style="fill:#e6e6e6;fill-opacity:1;stroke:none"
       d="m 173.46224,502.42844 c 0,6.04318 41.47456,6.04318 41.47456,6.04318 0,0 -41.47456,0 0,0 41.47453,0 41.47453,-6.04318 41.47453,-6.04318 0,0 0,6.04318 0,0 0,-6.04326 -41.47453,-6.04326 -41.47453,-6.04326 0,0 41.47453,0 0,0 -41.47456,0 -41.47456,6.04326 -41.47456,6.04326 z"
       id="path3785"
       inkscape:connector-curvature="0" />
    <path
       style="fill:url(#radialGradient3827);fill-opacity:1;stroke:none"
       d="m 175.64231,502.42334 c 0,4.4501 39.18674,4.4501 39.18674,4.4501 0,0 -39.18674,0 0,0 39.18672,0 39.18672,-4.4501 39.18672,-4.4501 0,0 0,4.4501 0,0 0,-4.45021 -39.18672,-4.45021 -39.18672,-4.45021 0,0 39.18672,0 0,0 -39.18674,0 -39.18674,4.45021 -39.18674,4.45021 z"
       id="path3785-1"
       inkscape:connector-curvature="0" />
    <path
       style="opacity:0.34513275;fill:#ffffff;fill-opacity:1;stroke:#d6d6d6;stroke-width:0.25834328;stroke-miterlimit:4;stroke-opacity:1;stroke-dasharray:none"
       d="m 185.9488,508.42892 c 1.63311,6.08578 18.08322,5.99727 18.08322,5.99727 0,0 9.3138,4.01297 0,0 -9.31377,-4.01286 -9.85815,-6.04152 -9.85815,-6.04152 0,0 8.22507,-0.0443 0,0 -8.22507,0.0443 -8.22507,0.0443 -8.22507,0.0443 z"
       id="path3831"
       inkscape:connector-curvature="0"
       inkscape:transform-center-x="-6.5770459"
       inkscape:transform-center-y="-22.816786" />
    <path
       style="fill:url(#radialGradient5311);fill-opacity:1;stroke:none"
       d="m 192.55363,515.11718 c -82.8032,-22.0046 -124.204771,0 -124.204771,0 0,0 11.291328,0 0,0 -11.291373,0 -11.291373,-5.50108 -11.291373,-5.50108 0,0 0,11.00226 0,0 0,-11.00235 0,16.50344 0,0 0,-16.50352 116.677244,-5.50118 116.677244,-5.50118 z"
       id="path5303"
       inkscape:connector-curvature="0" />
    <g
       style="font-size:40px;font-style:normal;font-variant:normal;font-weight:normal;font-stretch:normal;line-height:125%;letter-spacing:0px;word-spacing:0px;fill:#000000;fill-opacity:1;stroke:none;font-family:Bell MT;-inkscape-font-specification:Bell MT"
       id="text5349"
       transform="matrix(0.46599109,-0.12063145,0.12230838,0.5061916,-13.604773,271.16566)">
      <path
         d="m 43.25089,419.68813 c -1.744319,-0.2192 -2.976539,-0.35576 -3.696676,-0.40967 -4.861075,-0.36387 -8.508028,0.3618 -10.940789,2.17638 -2.432785,1.81466 -3.926352,3.47769 -4.480707,4.98911 -0.181922,0.54105 -0.520426,0.79302 -1.01553,0.75596 -0.225032,-0.0173 -0.426358,-0.13173 -0.603926,-0.34467 0.442803,-2.60683 1.327103,-6.10133 2.652917,-10.48348 1.083009,0.0589 1.770795,0.0993 2.063364,0.12114 1.755398,0.13121 4.096038,0.3953 7.022017,0.79158 3.150983,0.41326 8.00096,0.86487 14.549945,1.35479 6.706444,0.5019 11.082148,0.75145 13.127062,0.74918 1.867567,-0.0377 4.410482,0.0638 7.628749,0.30454 0.07017,1.60261 0.04206,3.26437 -0.08436,4.98527 -0.112035,1.96612 -0.15048,3.34978 -0.115307,4.15102 2.56e-4,0.17752 -0.01204,0.36518 -0.03702,0.56295 -0.06666,0.52748 -0.33627,0.77353 -0.808823,0.73812 -0.292616,-0.0219 -0.522737,-0.13343 -0.690401,-0.33449 -0.167751,-0.20109 -0.522567,-0.85436 -1.064444,-1.95981 -0.945502,-1.86766 -1.990775,-3.30468 -3.135829,-4.31105 -1.145146,-1.0063 -2.477462,-1.69944 -3.99696,-2.07936 -1.519583,-0.37987 -4.636826,-0.79056 -9.351739,-1.23211 -0.689188,3.29838 -1.302975,7.07932 -1.841379,11.34285 -1.781866,14.10932 -2.522919,22.4508 -2.223176,25.02445 0.299682,2.57369 2.35121,4.0028 6.154592,4.28733 0.92267,0.0691 1.360423,0.29039 1.313284,0.66397 -0.05554,0.43955 -0.522147,0.62648 -1.399806,0.56082 l -20.760875,-1.55328 c -0.540141,-0.0404 -0.783831,-0.26939 -0.73108,-0.68697 0.05271,-0.41756 0.607953,-0.58677 1.665703,-0.50764 1.777892,0.13294 3.274325,-0.24863 4.489343,-1.14495 1.214979,-0.89632 2.01234,-2.1733 2.392083,-3.83094 0.379693,-1.65761 1.073299,-6.47527 2.080806,-14.45298 0.860393,-6.81286 1.473342,-13.55554 1.838944,-20.22801 z"
         style="font-size:64px;fill:#ededed;fill-opacity:1;stroke:#ededed;stroke-width:1;stroke-opacity:1"
         id="path5354"
         inkscape:connector-curvature="0" />
      <path
         d="m 73.726969,460.96668 c -1.251208,1.30029 -2.634736,2.20243 -4.150587,2.7064 -1.515865,0.50397 -3.153849,0.61147 -4.913922,0.32251 -2.067086,-0.33938 -3.594582,-1.16276 -4.582496,-2.47015 -0.987908,-1.30738 -1.327949,-2.86891 -1.020139,-4.68461 0.230851,-1.36176 0.799003,-2.57273 1.70443,-3.63289 0.905442,-1.06014 1.857268,-1.77336 2.85545,-2.13967 0.99818,-0.36628 2.709839,-0.75329 5.134963,-1.16101 3.459947,-0.5559 5.578596,-1.14116 6.355951,-1.75581 0.777326,-0.6146 1.263931,-1.49964 1.459831,-2.6551 0.311279,-1.83631 0.123713,-3.3357 -0.56271,-4.49817 -0.686463,-1.16244 -1.817622,-1.87303 -3.393478,-2.1318 -1.289384,-0.21167 -2.310501,-0.0824 -3.063337,0.38776 -0.756367,0.49086 -1.455408,1.5743 -2.097136,3.25031 -0.690195,1.83777 -1.659505,2.65415 -2.907931,2.44916 -0.450262,-0.0739 -0.90809,-0.38235 -1.373486,-0.92534 -0.465403,-0.54294 -0.622897,-1.25803 -0.472487,-2.14527 0.262329,-1.54743 1.339899,-2.75429 3.232716,-3.62054 1.892814,-0.86621 4.32302,-1.05572 7.290613,-0.56852 2.353574,0.38644 4.174505,1.03002 5.462772,1.93073 1.288233,0.90078 2.037971,1.81383 2.249248,2.73919 0.211226,0.92541 0.106982,2.62607 -0.312729,5.102 l -1.569317,8.14038 c -0.535183,3.15684 -0.726259,5.43175 -0.573205,6.82473 0.152995,1.39299 0.741155,2.17349 1.76449,2.34149 0.204641,0.0336 0.496364,0.0499 0.875301,0.0483 l 0.532381,0.0238 c 0.470702,0.0773 0.67633,0.29131 0.616897,0.64207 -0.136449,0.80468 -2.220557,0.87605 -6.252363,0.21409 -1.166582,-0.19155 -1.903072,-0.59344 -2.209464,-1.20573 -0.306399,-0.61229 -0.333157,-1.78838 -0.08026,-3.52827 z m 2.046205,-12.07024 c -0.750428,0.70389 -2.308265,1.45547 -4.673534,2.25471 -2.337835,0.76138 -4.063148,1.57027 -5.175977,2.42671 -1.116334,0.87709 -1.796924,2.03778 -2.041757,3.48207 -0.220371,1.29989 -0.02376,2.46674 0.589814,3.50058 0.613567,1.03386 1.493424,1.64489 2.639526,1.83304 1.18702,0.19494 2.364505,0.0118 3.532459,-0.54931 1.167932,-0.5611 2.098798,-1.3679 2.792609,-2.42038 0.693788,-1.05247 1.22957,-2.6929 1.607352,-4.92125 0.2833,-1.67126 0.526506,-3.53997 0.72951,-5.60617 z"
         style="font-size:64px;fill:#ededed;fill-opacity:1;stroke:#ededed;stroke-width:1;stroke-opacity:1"
         id="path5356"
         inkscape:connector-curvature="0" />
      <path
         d="m 114.7101,458.16497 c 0.58522,2.35476 -0.007,4.31545 -1.77592,5.88206 -1.76917,1.56659 -4.15647,2.2618 -7.16197,2.08563 -1.78283,-0.10457 -4.02309,-0.68598 -6.720676,-1.74426 -1.471002,-0.56633 -2.333823,-0.85694 -2.58853,-0.87189 -0.432991,-0.0254 -0.762119,0.16523 -0.987235,0.57225 -0.266261,0.54449 -0.577682,0.80629 -0.934255,0.78538 -0.305635,-0.018 -0.568544,-0.31837 -0.788744,-0.9014 -0.22015,-0.58302 -0.597778,-1.90041 -1.132804,-3.95215 -0.464366,-1.76753 -0.785094,-2.90655 -0.96205,-3.41704 -0.186657,-0.75107 -0.03811,-1.11245 0.445908,-1.08407 0.280141,0.0163 0.544592,0.22198 0.793256,0.61662 1.568426,2.37237 3.451008,4.41809 5.64773,6.13718 2.19667,1.71908 4.50479,2.64953 6.92444,2.7914 1.70651,0.1 3.11728,-0.23235 4.23237,-0.99711 1.11507,-0.76479 1.49349,-1.86783 1.13533,-3.3091 -0.55493,-2.23295 -3.4792,-4.35474 -8.77276,-6.36539 -3.634217,-1.39326 -6.079739,-2.3968 -7.336636,-3.0106 -1.256884,-0.61377 -2.319734,-1.40623 -3.188547,-2.37733 -0.868813,-0.9711 -1.439415,-2.00473 -1.711852,-3.10093 -0.519589,-2.09083 0.03859,-3.78342 1.674632,-5.07782 1.636019,-1.29431 3.867577,-1.85862 6.69475,-1.6929 2.088533,0.12244 4.509483,0.77449 7.262823,1.95602 0.44787,0.18636 0.8246,0.28843 1.13027,0.30631 0.2547,0.015 0.49449,-0.13101 0.71944,-0.43792 0.22994,-0.28654 0.43406,-0.4246 0.61238,-0.41419 0.22919,0.0134 0.42641,0.10005 0.5916,0.25975 0.16517,0.15974 0.52725,1.06113 1.08619,2.70416 0.55888,1.6431 0.96954,2.99243 1.23187,4.04797 0.16148,0.64961 0.026,0.9618 -0.40734,0.93631 -0.38205,-0.0223 -0.76085,-0.33463 -1.13633,-0.93677 -0.34002,-0.56003 -1.21109,-1.64126 -2.61328,-3.24379 -1.40222,-1.60248 -2.76119,-2.6523 -4.07695,-3.14955 -1.31578,-0.49718 -2.55946,-0.78014 -3.7311,-0.8488 -1.833867,-0.10747 -3.248284,0.15966 -4.243272,0.80147 -0.995044,0.64182 -1.351296,1.53111 -1.068775,2.66785 0.176523,0.71053 0.577459,1.36413 1.202612,1.96086 0.625191,0.59679 1.183226,1.0496 1.674102,1.35839 0.490868,0.30884 3.14894,1.38486 7.974193,3.22799 2.99795,1.15595 4.99677,2.02828 5.99643,2.61699 0.99964,0.5887 1.9059,1.35695 2.71875,2.30475 0.81279,0.94784 1.34282,1.91908 1.59004,2.91376 z"
         style="font-size:64px;fill:#ededed;fill-opacity:1;stroke:#ededed;stroke-opacity:1"
         id="path5358"
         inkscape:connector-curvature="0" />
      <path
         d="m 131.43863,450.08814 c -1.46444,4.42353 -2.70544,8.83177 -3.72306,13.22475 -0.78354,3.3824 -0.72571,5.77648 0.1735,7.18228 0.89919,1.40581 2.41392,2.45927 4.54422,3.16041 1.5466,0.50906 3.34687,0.66877 5.40086,0.47907 0.73805,-0.0678 1.18004,-0.0777 1.32595,-0.0298 0.37935,0.1249 0.53558,0.33165 0.46872,0.6204 -0.11471,0.49499 -1.33218,0.93775 -3.65249,1.32828 -2.32036,0.39053 -4.98341,0.0911 -7.98908,-0.89813 -2.97656,-0.97969 -5.03933,-2.4466 -6.18837,-4.40075 -1.14907,-1.95418 -1.38674,-4.38526 -0.7131,-7.29331 0.70229,-3.03176 2.16889,-8.14266 4.3998,-15.33267 -0.19476,-0.10842 -1.56416,-0.63687 -4.10824,-1.58523 l -2.59768,-0.98816 c -0.63724,-0.2319 -0.92239,-0.49222 -0.85548,-0.78101 0.0622,-0.26808 0.477,-0.36458 1.24479,-0.28949 1.2681,0.0844 3.49185,-0.16029 6.67125,-0.73424 3.17936,-0.5739 5.32024,-2.15552 6.42258,-4.74492 0.28387,-0.68343 0.68852,-0.93869 1.21381,-0.76583 0.52524,0.17291 0.72101,0.54811 0.58727,1.12555 -0.0429,0.18565 -0.10294,0.37681 -0.17987,0.57341 -0.27388,0.77557 -0.53272,1.68925 -0.77623,2.74109 l -1.07427,4.84048 9.60767,3.06237 c 1.63413,0.53789 2.44934,0.95047 2.44561,1.23778 -0.24889,0.93916 -0.60637,1.46521 -1.0722,1.57822 -1.51749,-0.49942 -5.37613,-1.60296 -11.57591,-3.3106 z"
         style="font-size:64px;fill:#ededed;fill-opacity:1;stroke:#ededed;stroke-opacity:1"
         id="path5360"
         inkscape:connector-curvature="0" />
      <path
         d="m 151.21124,467.4207 c -0.25344,1.11798 -0.42762,2.01019 -0.52241,2.6767 -0.44868,3.15488 0.13615,5.97908 1.75439,8.47261 1.61823,2.49351 3.84726,3.97318 6.68716,4.43896 2.77058,0.45442 5.49659,-0.18974 8.17803,-1.93256 0.77794,-0.48627 1.25927,-0.71423 1.444,-0.68395 0.36937,0.0607 0.52457,0.3816 0.46556,0.96304 -1.09856,1.41132 -2.78573,2.47598 -5.06147,3.19402 -2.27581,0.71808 -4.71811,0.86346 -7.32717,0.43516 -3.83266,-0.62863 -6.88782,-2.48819 -9.16543,-5.57867 -2.27758,-3.09049 -3.12729,-6.66861 -2.54909,-10.73441 0.61925,-4.35459 2.59618,-7.74763 5.93077,-10.17907 3.33456,-2.4314 6.6642,-3.37446 9.98895,-2.82917 3.1169,0.51125 5.77176,2.11193 7.96457,4.80197 2.19275,2.69007 3.07112,5.5681 2.63516,8.63411 -0.0664,0.46658 -0.19045,0.79863 -0.37203,0.99618 -0.18171,0.19756 -1.08075,0.16332 -2.69678,-0.10129 z m 0.24639,-1.73296 c 2.98251,0.62569 5.88215,1.1697 8.69897,1.63143 l 1.84973,0.20114 c 1.39162,0.18266 2.4908,0.0959 3.29756,-0.26055 0.80675,-0.35651 1.29545,-1.13461 1.46609,-2.33437 0.26532,-1.86624 -0.16701,-3.60253 -1.29711,-5.20888 -1.13016,-1.60632 -2.59565,-2.55719 -4.39652,-2.85259 -1.6624,-0.27267 -3.43193,0.24993 -5.30864,1.56767 -1.87676,1.31779 -3.31346,3.73653 -4.31014,7.25621 z"
         style="font-size:64px;fill:#ededed;fill-opacity:1;stroke:#ededed;stroke-opacity:1"
         id="path5362"
         inkscape:connector-curvature="0" />
    </g>
    <path
       style="fill:#ededed;fill-opacity:1;stroke:none"
       id="path5425"
       d="m 128.48588,489.16599 c 1.37799,-0.97641 2.94319,-1.66746 4.55519,-2.1492 0.70456,-0.1557 1.59811,-0.39407 2.33213,-0.29628 0.12243,0.0163 0.24133,0.0578 0.36206,0.0864 0.66785,0.15855 1.14321,0.66854 1.60446,1.16477 0.36701,0.4499 0.80285,0.82561 1.22997,1.21022 0.42234,0.33931 0.92525,0.50708 1.43219,0.63331 0.37693,0.11521 0.74275,0.0891 1.12104,0.0552 0.78835,-0.28175 1.90864,-0.88299 -1.56541,0.80781 -0.0485,0.0236 0.0936,-0.0544 0.13547,-0.0885 0.0478,-0.0386 0.0881,-0.0858 0.13232,-0.12859 0.19999,-0.23432 0.0962,-0.10641 0.30841,-0.38616 0,0 2.18454,-0.79187 2.18454,-0.79187 l 0,0 c -0.19589,0.28733 -0.10179,0.15187 -0.2817,0.40682 -0.009,0.0106 -0.23412,0.28509 -0.23665,0.28648 -0.72973,0.39394 -1.67582,1.09554 -2.62942,1.20231 -0.38913,0.0241 -0.7712,-0.0156 -1.15126,-0.13351 -0.52869,-0.15991 -1.05564,-0.36159 -1.48903,-0.73414 -0.42863,-0.39246 -0.85371,-0.78964 -1.23369,-1.23438 -0.42883,-0.47286 -0.88109,-0.91635 -1.51542,-1.03681 -0.87879,-0.13569 -1.75157,0.0482 -2.59065,0.27777 -0.18779,0.0595 -0.37721,0.11407 -0.56332,0.17862 -0.9413,0.32656 -1.18581,0.54911 0.92287,-0.56794 0.22303,-0.11814 -0.45315,0.22643 -0.65879,0.37373 -0.0577,0.0413 -0.11037,0.0897 -0.1656,0.13442 0,0 -2.23983,0.72951 -2.23983,0.72951 z"
       inkscape:connector-curvature="0" />
    <path
       style="fill:#ededed;fill-opacity:1;stroke:none"
       id="path5425-1"
       d="m 175.01113,490.41797 c -1.32988,-1.19477 -2.8827,-2.11689 -4.50512,-2.82729 -0.71466,-0.25342 -1.61698,-0.61735 -2.38781,-0.61084 -0.12855,10e-4 -0.25597,0.0291 -0.38407,0.0426 -0.70831,0.0788 -1.25271,0.54733 -1.78106,1.00381 -0.42592,0.4205 -0.91574,0.7549 -1.39739,1.09966 -0.47211,0.29826 -1.01044,0.40758 -1.54875,0.47317 -0.40238,0.0711 -0.77902,-0.004 -1.16778,-0.088 -0.78877,-0.39546 -1.88941,-1.16641 1.54122,1.04361 0.0478,0.0308 -0.0914,-0.0688 -0.13153,-0.10966 -0.0455,-0.0464 -0.0828,-0.10065 -0.12421,-0.15098 -0.18363,-0.26973 -0.0889,-0.12319 -0.2807,-0.44179 0,0 -2.1847,-1.10739 -2.1847,-1.10739 l 0,0 c 0.17408,0.32438 0.0901,0.17124 0.25094,0.45985 0.008,0.0122 0.21386,0.32704 0.21639,0.32879 0.7167,0.50457 1.62656,1.35735 2.60436,1.59216 0.40099,0.0755 0.80113,0.0838 1.20702,0.0105 0.56424,-0.0977 1.13092,-0.23921 1.61787,-0.5707 0.484,-0.35275 0.96481,-0.71084 1.40368,-1.12433 0.49239,-0.43636 1.00605,-0.83915 1.67583,-0.88219 0.92477,-0.0272 1.81094,0.27739 2.65763,0.62512 0.18863,0.0863 0.37956,0.16765 0.56592,0.25898 0.94282,0.4619 1.17384,0.72518 -0.89934,-0.71071 -0.21926,-0.15185 0.4469,0.29443 0.64515,0.47437 0.0556,0.0505 0.10529,0.10758 0.15815,0.16134 0,0 2.24827,1.04967 2.24827,1.04967 z"
       inkscape:connector-curvature="0"
       inkscape:transform-center-x="2.1748435"
       inkscape:transform-center-y="0.22273113" />
    <g
       style="font-size:40px;font-style:normal;font-variant:normal;font-weight:normal;font-stretch:normal;line-height:125%;letter-spacing:0px;word-spacing:0px;fill:#000000;fill-opacity:1;stroke:none;font-family:Baskerville Old Face;-inkscape-font-specification:Baskerville Old Face"
       id="text5451"
       transform="matrix(0.40633538,0,0,0.48403328,22.619938,261.83901)">
      <path
         d="m 426.32709,435.20432 3.5006,14.34404 -0.88095,0.13099 c -0.41246,-0.58155 -0.72929,-1.02217 -0.95048,-1.32184 -1.32918,-1.93059 -2.3812,-3.35927 -3.1561,-4.28604 -1.37688,-1.65744 -3.16883,-3.09803 -5.37587,-4.32175 -1.67037,-0.92657 -3.32602,-1.53389 -4.96695,-1.822 -1.64098,-0.28802 -3.41902,-0.28966 -5.33412,-0.005 -2.88548,0.4291 -5.27682,1.32782 -7.17397,2.69618 -1.66905,1.2015 -3.12539,2.787 -4.36897,4.75652 -1.24364,1.96958 -2.14257,4.13729 -2.69682,6.5031 -0.79787,3.33323 -0.77728,6.98811 0.0618,10.96465 0.71205,3.37473 1.85173,6.34223 3.41906,8.90249 1.56731,2.5603 3.5013,4.61159 5.80195,6.15387 4.24041,2.87224 9.27164,3.8755 15.09366,3.00979 2.91096,-0.43284 5.43872,-1.24656 7.58332,-2.44113 2.14451,-1.19457 3.69187,-2.66059 4.64213,-4.39808 1.10455,-2.00429 1.66906,-4.5712 1.69354,-7.70072 l 0.90816,-0.002 c 0.23137,3.46837 -0.29744,6.32925 -1.58645,8.58266 -1.23064,2.15606 -3.17571,3.95281 -5.83521,5.39021 -2.65957,1.43743 -5.87893,2.4371 -9.65808,2.99904 -3.52387,0.52399 -6.98747,0.58454 -10.39083,0.18165 -5.4319,-0.65548 -9.98176,-2.62263 -13.64955,-5.90145 -3.66783,-3.27882 -6.04373,-7.48688 -7.12767,-12.6242 -0.82998,-3.93354 -0.75267,-7.68611 0.23194,-11.25771 0.9846,-3.57153 2.77031,-6.5916 5.35712,-9.0602 1.99714,-1.89311 4.51442,-3.53662 7.55187,-4.93051 3.03743,-1.39381 6.17761,-2.33184 9.42059,-2.81409 3.08971,-0.45939 6.46253,-0.451 10.11842,0.0251 l 3.3245,0.40353 c 0.65362,0.10238 1.21026,0.11937 1.66994,0.051 0.63833,-0.0949 1.11419,-0.39842 1.42754,-0.91061 0.13335,-0.24147 0.27556,-0.62841 0.42664,-1.16082 z"
         style="font-size:64px;fill:#ededed;fill-opacity:1;stroke:#ededed;stroke-width:1;stroke-opacity:1;font-family:Baskerville Old Face;-inkscape-font-specification:Baskerville Old Face"
         id="path5456"
         inkscape:connector-curvature="0" />
      <path
         d="m 439.88683,466.25528 c 0,-3.3425 1.54939,-6.32396 4.6482,-8.94434 3.77019,-3.17745 8.27635,-4.76617 13.5185,-4.76621 5.24209,4e-5 9.73534,1.58876 13.47975,4.76621 3.09877,2.64102 4.64817,5.63278 4.6482,8.97529 -3e-5,3.30127 -1.47197,6.24145 -4.41578,8.82056 -3.6153,3.17747 -8.18602,4.7662 -13.71217,4.7662 -5.52621,0 -10.10984,-1.58873 -13.75091,-4.7662 -1.4203,-1.23796 -2.51133,-2.62036 -3.27311,-4.14721 -0.76178,-1.52683 -1.14268,-3.09492 -1.14268,-4.7043 z m 7.04976,-0.34044 c -1e-5,3.59013 1.0071,6.63347 3.02132,9.13005 2.27244,2.78544 5.04844,4.17816 8.32802,4.17816 1.39444,0 2.75016,-0.30949 4.06717,-0.92848 1.31697,-0.61898 2.45318,-1.48557 3.40868,-2.59974 1.00707,-1.15544 1.82051,-2.60489 2.4403,-4.34838 0.61973,-1.74347 0.92961,-3.4302 0.92964,-5.06022 -3e-5,-1.69188 -0.32928,-3.39924 -0.98774,-5.1221 -0.65853,-1.72284 -1.54298,-3.20324 -2.65335,-4.44124 -2.11754,-2.33149 -4.71276,-3.49724 -7.78572,-3.49727 -2.91805,3e-5 -5.43582,1.22768 -7.55332,3.68296 -2.14335,2.45534 -3.21501,5.45742 -3.215,9.00626 z"
         style="font-size:64px;fill:#ededed;fill-opacity:1;stroke:#ededed;stroke-opacity:1;font-family:Baskerville Old Face;-inkscape-font-specification:Baskerville Old Face"
         id="path5458"
         inkscape:connector-curvature="0" />
      <path
         d="m 506.20371,477.97337 c -0.14327,-1.03442 -0.16108,-2.12263 -0.0534,-3.26466 -1.86342,0.87094 -3.59876,1.46879 -5.20605,1.79355 -1.60734,0.32475 -3.30768,0.42341 -5.10104,0.29599 -3.6346,-0.25826 -6.6541,-1.4239 -9.05851,-3.49691 -1.53644,-1.32154 -2.66141,-2.92216 -3.37493,-4.80187 -0.71355,-1.8797 -0.96856,-3.89928 -0.76507,-6.05874 0.21522,-2.28402 0.89254,-4.36277 2.03197,-6.23624 1.1394,-1.87345 2.63059,-3.3927 4.47355,-4.55776 2.91377,-1.79962 6.24772,-2.56607 10.00188,-2.29934 1.81727,0.12915 3.35002,0.46799 4.59823,1.01652 1.24816,0.54858 2.67634,1.48617 4.28453,2.81279 l 1.08886,-11.55513 c 0.21323,-2.26323 -0.0636,-3.92378 -0.83045,-4.98165 -0.76693,-1.0578 -2.14273,-1.65723 -4.12737,-1.79829 l 0.0705,-0.7475 11.05409,-0.43738 -3.40158,36.09811 c -0.22113,2.34632 0.0518,4.0484 0.81872,5.10623 0.76686,1.05784 2.14265,1.65726 4.12737,1.79829 l -0.0734,0.77865 z m 0.85967,-14.48737 c 0.27193,-2.88618 0.33244,-5.06101 0.18152,-6.5245 -0.15099,-1.46347 -0.55405,-2.67835 -1.20919,-3.64466 -0.57129,-0.83488 -1.37842,-1.52977 -2.42138,-2.08467 -1.04301,-0.55485 -2.13837,-0.87306 -3.28612,-0.95464 -2.55858,-0.18177 -4.86824,0.69926 -6.92901,2.6431 -1.24126,1.166 -2.25991,2.58818 -3.05597,4.26655 -0.79607,1.67839 -1.28018,3.43119 -1.45236,5.25841 -0.16828,1.78571 -0.0342,3.55631 0.40215,5.3118 0.43637,1.7555 1.11093,3.28232 2.02371,4.58045 1.5938,2.24534 3.69389,3.46062 6.30029,3.64581 1.24339,0.0883 2.45245,-0.0975 3.6272,-0.55748 1.1747,-0.46 2.15379,-1.14294 2.93726,-2.04882 0.81125,-0.94569 1.42931,-2.14027 1.85423,-3.58374 0.42485,-1.44347 0.7674,-3.546 1.02767,-6.30761 z"
         style="font-size:64px;fill:#ededed;fill-opacity:1;stroke:#ededed;stroke-opacity:1;font-family:Baskerville Old Face;-inkscape-font-specification:Baskerville Old Face"
         id="path5460"
         inkscape:connector-curvature="0" />
      <path
         d="m 532.79366,461.1804 c -0.62572,0.97214 -1.05575,1.68453 -1.28989,2.13722 -0.92603,1.79024 -1.49862,3.65464 -1.71784,5.59314 -0.21916,1.93853 -0.0483,3.67261 0.51255,5.20228 0.57622,1.55927 1.56021,2.96885 2.95203,4.22869 1.39177,1.25985 3.03853,2.21985 4.94027,2.88001 1.40674,0.48832 2.83766,0.76659 4.29272,0.83483 1.45504,0.0682 2.7697,-0.0822 3.94398,-0.45134 1.31032,-0.39466 2.71398,-1.26666 4.21093,-2.61599 l 0.66976,0.48736 c -1.92272,2.17243 -4.31436,3.48424 -7.17502,3.93541 -2.86071,0.45115 -6.14066,0.0346 -9.83989,-1.24947 -3.20431,-1.11232 -5.74514,-2.46763 -7.62248,-4.06595 -1.8774,-1.59832 -3.17957,-3.50669 -3.90652,-5.72508 -1.01159,-3.09394 -0.63924,-6.33852 1.11701,-9.73382 2.39488,-4.62989 6.37063,-7.53384 11.92729,-8.71181 4.03783,-0.85563 8.01059,-0.6052 11.91826,0.75125 2.08407,0.72348 3.86015,1.68589 5.32832,2.88728 1.46808,1.2014 2.52695,2.57022 3.17662,4.1064 1.00761,2.38867 0.84084,4.87937 -0.50026,7.47212 z m 17.73822,4.73759 c 0.88198,-2.12104 1.21967,-3.87279 1.0129,-5.25529 -0.18187,-1.25244 -0.70725,-2.37537 -1.57616,-3.36879 -0.86898,-0.99339 -1.96776,-1.72069 -3.29631,-2.18191 -2.24043,-0.77769 -4.59461,-0.69683 -7.06252,0.2426 -2.46797,0.93946 -4.4543,2.50725 -5.959,4.70339 z"
         style="font-size:64px;fill:#ededed;fill-opacity:1;stroke:#ededed;stroke-opacity:1;font-family:Baskerville Old Face;-inkscape-font-specification:Baskerville Old Face"
         id="path5462"
         inkscape:connector-curvature="0" />
    </g>
    <path
       d="m 145.48666,489.27231 c 0,-1.185 0.53281,-2.24199 1.59833,-3.17106 1.29639,-1.12649 2.84586,-1.68971 4.64838,-1.68973 1.80255,2e-5 3.34758,0.56324 4.6351,1.68973 1.06552,0.93639 1.59829,1.99703 1.59831,3.18204 -2e-5,1.17037 -0.50618,2.21273 -1.5184,3.12708 -1.24314,1.12648 -2.8148,1.68982 -4.71501,1.68982 -1.90018,0 -3.47631,-0.56334 -4.72827,-1.68982 -0.48839,-0.43889 -0.86357,-0.92898 -1.12549,-1.47028 -0.26192,-0.54128 -0.39295,-1.09723 -0.39295,-1.66778 z m 2.42411,-0.1207 c 0,1.27278 0.34629,2.35174 1.0389,3.23682 0.78138,0.98751 1.73591,1.48132 2.86362,1.48132 0.47949,0 0.94569,-0.10977 1.39852,-0.32921 0.45283,-0.21947 0.84356,-0.52671 1.17209,-0.9217 0.34628,-0.40962 0.62601,-0.92349 0.83911,-1.5416 0.21309,-0.61809 0.31964,-1.2161 0.31964,-1.79395 0,-0.59982 -0.11303,-1.20514 -0.33962,-1.81592 -0.22645,-0.61078 -0.53055,-1.13571 -0.91235,-1.5746 -0.72813,-0.82655 -1.6205,-1.23986 -2.67718,-1.23987 -1.00339,1e-5 -1.86911,0.43524 -2.59725,1.30571 -0.73696,0.87054 -1.10548,1.93486 -1.10548,3.193 z"
       style="font-size:64px;font-style:normal;font-variant:normal;font-weight:normal;font-stretch:normal;line-height:125%;letter-spacing:0px;word-spacing:0px;fill:#ededed;fill-opacity:1;stroke:#ededed;stroke-opacity:1;font-family:Baskerville Old Face;-inkscape-font-specification:Baskerville Old Face"
       id="path5379-1"
       inkscape:connector-curvature="0" />
  </g>
</svg>
