<?xml version="1.0" encoding="UTF-8" standalone="no"?>
<!-- Created with Inkscape (http://www.inkscape.org/) -->

<svg
   xmlns:osb="http://www.openswatchbook.org/uri/2009/osb"
   xmlns:dc="http://purl.org/dc/elements/1.1/"
   xmlns:cc="http://creativecommons.org/ns#"
   xmlns:rdf="http://www.w3.org/1999/02/22-rdf-syntax-ns#"
   xmlns:svg="http://www.w3.org/2000/svg"
   xmlns="http://www.w3.org/2000/svg"
   xmlns:xlink="http://www.w3.org/1999/xlink"
   xmlns:sodipodi="http://sodipodi.sourceforge.net/DTD/sodipodi-0.dtd"
   xmlns:inkscape="http://www.inkscape.org/namespaces/inkscape"
   width="210.83702"
   height="40.94772"
   id="svg2"
   version="1.1"
   inkscape:version="0.48.2 r9819"
   sodipodi:docname="present_Hurray_4.svg">
  <defs
     id="defs4">
    <linearGradient
       id="linearGradient5385">
      <stop
         style="stop-color:#2b2b2b;stop-opacity:1;"
         offset="0"
         id="stop5387" />
      <stop
         style="stop-color:#2b2b2b;stop-opacity:0;"
         offset="1"
         id="stop5389" />
    </linearGradient>
    <linearGradient
       id="linearGradient5364">
      <stop
         style="stop-color:#2b2b2b;stop-opacity:1;"
         offset="0"
         id="stop5366" />
      <stop
         style="stop-color:#2b2b2b;stop-opacity:1;"
         offset="1"
         id="stop5368" />
    </linearGradient>
    <linearGradient
       id="linearGradient5305">
      <stop
         style="stop-color:#ececec;stop-opacity:1;"
         offset="0"
         id="stop5307" />
      <stop
         id="stop5347"
         offset="0.5125367"
         style="stop-color:#ececec;stop-opacity:1;" />
      <stop
         style="stop-color:#bdbdbd;stop-opacity:1;"
         offset="1"
         id="stop5309" />
    </linearGradient>
    <linearGradient
       id="linearGradient3841"
       osb:paint="gradient">
      <stop
         style="stop-color:#000000;stop-opacity:0;"
         offset="0"
         id="stop3843" />
      <stop
         style="stop-color:#000000;stop-opacity:0;"
         offset="1"
         id="stop3845" />
    </linearGradient>
    <linearGradient
       id="linearGradient3821">
      <stop
         style="stop-color:#ececec;stop-opacity:1;"
         offset="0"
         id="stop3823" />
      <stop
         style="stop-color:#bdbdbd;stop-opacity:1;"
         offset="1"
         id="stop3825" />
    </linearGradient>
    <linearGradient
       id="linearGradient3777">
      <stop
         style="stop-color:#ececec;stop-opacity:1;"
         offset="0"
         id="stop3779" />
      <stop
         style="stop-color:#bdbdbd;stop-opacity:1;"
         offset="1"
         id="stop3781" />
    </linearGradient>
    <radialGradient
       inkscape:collect="always"
       xlink:href="#linearGradient3777"
       id="radialGradient3783"
       cx="490"
       cy="551.03094"
       fx="490"
       fy="551.03094"
       r="150"
       gradientTransform="matrix(0.27649698,0,0,0.05931328,79.705826,479.50751)"
       gradientUnits="userSpaceOnUse" />
    <radialGradient
       inkscape:collect="always"
       xlink:href="#linearGradient3821"
       id="radialGradient3827"
       cx="290"
       cy="316.26462"
       fx="290"
       fy="316.26462"
       r="135.5"
       gradientTransform="matrix(0.28673761,0,0,0.02285726,130.60173,494.38642)"
       gradientUnits="userSpaceOnUse" />
    <radialGradient
       inkscape:collect="always"
       xlink:href="#linearGradient5305"
       id="radialGradient5311"
       cx="269.09756"
       cy="612.27612"
       fx="269.09756"
       fy="612.27612"
       r="180"
       gradientTransform="matrix(0.34735594,0.04504443,-0.00276557,0.05635686,54.391719,466.02351)"
       gradientUnits="userSpaceOnUse" />
    <radialGradient
       inkscape:collect="always"
       xlink:href="#linearGradient5305-8"
       id="radialGradient5311-8"
       cx="60"
       cy="417.71222"
       fx="60"
       fy="417.71222"
       r="180"
       gradientTransform="matrix(1,0,0,0.07369615,0,471.5784)"
       gradientUnits="userSpaceOnUse" />
    <linearGradient
       id="linearGradient5305-8">
      <stop
         style="stop-color:#ececec;stop-opacity:1;"
         offset="0"
         id="stop5307-2" />
      <stop
         style="stop-color:#bdbdbd;stop-opacity:1;"
         offset="1"
         id="stop5309-7" />
    </linearGradient>
  </defs>
  <sodipodi:namedview
     id="base"
     pagecolor="#ffffff"
     bordercolor="#666666"
     borderopacity="1.0"
     inkscape:pageopacity="0.0"
     inkscape:pageshadow="2"
     inkscape:zoom="2.8"
     inkscape:cx="143.21599"
     inkscape:cy="14.773163"
     inkscape:document-units="px"
     inkscape:current-layer="layer1"
     showgrid="false"
     inkscape:window-width="1600"
     inkscape:window-height="838"
     inkscape:window-x="-8"
     inkscape:window-y="-8"
     inkscape:window-maximized="1"
     borderlayer="false"
     fit-margin-top="0"
     fit-margin-left="0"
     fit-margin-right="0"
     fit-margin-bottom="0">
    <inkscape:grid
       type="xygrid"
       id="grid2985"
       empspacing="5"
       visible="true"
       enabled="true"
       snapvisiblegridlinesonly="true" />
  </sodipodi:namedview>
  <metadata
     id="metadata7">
    <rdf:RDF>
      <cc:Work
         rdf:about="">
        <dc:format>image/svg+xml</dc:format>
        <dc:type
           rdf:resource="http://purl.org/dc/dcmitype/StillImage" />
        <dc:title></dc:title>
      </cc:Work>
    </rdf:RDF>
  </metadata>
  <g
     inkscape:label="Layer 1"
     inkscape:groupmode="layer"
     id="layer1"
     transform="translate(-45.826842,-477.28646)">
    <path
       style="fill:url(#radialGradient3783);fill-opacity:1;stroke:none"
       d="m 173.71478,503.12609 c 0,15.10809 41.47456,15.10809 41.47456,15.10809 0,0 -41.47456,0 0,0 41.47453,0 41.47453,-15.10809 41.47453,-15.10809 0,0 0,-6.04326 0,0 0,6.04318 -41.47453,6.04318 -41.47453,6.04318 0,0 41.47453,0 0,0 -41.47456,0 -41.47456,-6.04318 -41.47456,-6.04318 z"
       id="path3007"
       inkscape:connector-curvature="0" />
    <path
       style="fill:#e6e6e6;fill-opacity:1;stroke:none"
       d="m 173.71478,503.12609 c 0,6.04318 41.47456,6.04318 41.47456,6.04318 0,0 -41.47456,0 0,0 41.47453,0 41.47453,-6.04318 41.47453,-6.04318 0,0 0,6.04318 0,0 0,-6.04326 -41.47453,-6.04326 -41.47453,-6.04326 0,0 41.47453,0 0,0 -41.47456,0 -41.47456,6.04326 -41.47456,6.04326 z"
       id="path3785"
       inkscape:connector-curvature="0" />
    <path
       style="fill:url(#radialGradient3827);fill-opacity:1;stroke:#d6d6d6;stroke-width:0.20813596;stroke-opacity:1"
       d="m 176.47975,503.12608 c 0,3.0216 38.70959,3.0216 38.70959,3.0216 0,0 -38.70959,0 0,0 38.70957,0 38.70957,-3.0216 38.70957,-3.0216 0,0 0,3.0216 0,0 0,-3.02166 -38.70957,-3.02166 -38.70957,-3.02166 0,0 38.70957,0 0,0 -38.70959,0 -38.70959,3.02166 -38.70959,3.02166 z"
       id="path3785-1"
       inkscape:connector-curvature="0" />
    <path
       style="opacity:0.34513275;fill:#ffffff;fill-opacity:1;stroke:#d6d6d6;stroke-width:0.25834328;stroke-miterlimit:4;stroke-opacity:1;stroke-dasharray:none"
       d="m 186.20134,509.43907 c 1.63311,6.08578 18.08322,5.99727 18.08322,5.99727 0,0 9.3138,4.01297 0,0 -9.31377,-4.01286 -9.85815,-6.04152 -9.85815,-6.04152 0,0 8.22507,-0.0443 0,0 -8.22507,0.0443 -8.22507,0.0443 -8.22507,0.0443 z"
       id="path3831"
       inkscape:connector-curvature="0"
       inkscape:transform-center-x="-6.5770459"
       inkscape:transform-center-y="-22.816786" />
    <path
       style="fill:url(#radialGradient5311);fill-opacity:1;stroke:none"
       d="m 191.73737,515.97808 c -76.66106,-22.65835 -114.991576,0 -114.991576,0 0,0 10.453766,0 0,0 -10.453807,0 -10.453807,-5.66451 -10.453807,-5.66451 0,0 0,11.32913 0,0 0,-11.32923 0,16.99374 0,0 0,-16.99384 108.022413,-5.66462 108.022413,-5.66462 z"
       id="path5303"
       inkscape:connector-curvature="0" />
    <g
       style="font-size:40px;font-style:normal;font-variant:normal;font-weight:normal;font-stretch:normal;line-height:125%;letter-spacing:0px;word-spacing:0px;fill:#000000;fill-opacity:1;stroke:none;font-family:Bell MT;-inkscape-font-specification:Bell MT"
       id="text5349"
       transform="matrix(0.46599109,-0.12063145,0.12230838,0.5061916,-13.352235,272.17581)">
      <path
         d="m 31.924024,432.49124 c -1.753233,0.0768 -2.988156,0.14909 -3.704782,0.21687 -4.83736,0.45763 -8.270185,1.78595 -10.298537,3.9843 -2.028358,2.19844 -3.165712,4.08957 -3.412061,5.67341 -0.07199,0.56419 -0.354324,0.86957 -0.847014,0.91617 -0.223951,0.0212 -0.4439,-0.0583 -0.659854,-0.23851 -0.07837,-2.6455 0.101593,-6.24067 0.539908,-10.7855 1.073362,-0.12384 1.755613,-0.19953 2.046754,-0.22707 1.746798,-0.16544 4.093495,-0.29812 7.040047,-0.39875 3.170488,-0.12166 8.014215,-0.4909 14.531195,-1.10771 6.673706,-0.63146 11.012732,-1.12031 13.01713,-1.46604 1.82356,-0.35088 4.336605,-0.67789 7.539138,-0.98104 0.383867,1.56887 0.682997,3.21259 0.89739,4.93116 0.27669,1.958 0.511034,3.32917 0.703035,4.11353 0.03515,0.17505 0.05995,0.36221 0.07438,0.56145 0.03835,0.53146 -0.177607,0.81942 -0.64786,0.86388 -0.291179,0.0276 -0.538727,-0.0438 -0.742634,-0.21395 -0.203998,-0.17016 -0.680292,-0.75488 -1.428881,-1.75417 -1.294151,-1.68326 -2.601459,-2.92503 -3.921925,-3.72528 -1.320544,-0.80017 -2.763023,-1.26002 -4.327441,-1.37952 -1.564488,-0.11942 -4.701391,-8.8e-4 -9.410724,0.35559 -0.02723,3.36896 0.114332,7.20121 0.424678,11.49678 1.026908,14.21538 1.94029,22.56708 2.740134,25.05514 0.799789,2.48809 3.092079,3.55304 6.876874,3.19482 0.918163,-0.0869 1.390856,0.0579 1.418086,0.43428 0.03196,0.44286 -0.388751,0.70561 -1.262123,0.78826 l -20.659446,1.9552 c -0.537496,0.0509 -0.821433,-0.13404 -0.851812,-0.55476 -0.03041,-0.42069 0.480683,-0.68085 1.533264,-0.78048 1.769186,-0.16754 3.161286,-0.79521 4.176282,-1.88334 1.014959,-1.08812 1.545645,-2.48154 1.592059,-4.18026 0.04637,-1.69869 -0.220755,-6.56687 -0.801387,-14.60454 -0.495859,-6.86407 -1.220516,-13.61736 -2.173871,-20.25986 z"
         style="font-size:64px;fill:#666666;fill-opacity:1"
         id="path5354"
         inkscape:connector-curvature="0" />
      <path
         d="m 74.832288,463.67913 c -1.079179,1.42684 -2.338989,2.47146 -3.779436,3.13383 -1.44046,0.66238 -3.051228,0.94312 -4.832274,0.84222 -2.091718,-0.1185 -3.708506,-0.77595 -4.850371,-1.97234 -1.141859,-1.19639 -1.67289,-2.71445 -1.593112,-4.55419 0.05983,-1.37979 0.472826,-2.64528 1.238964,-3.79646 0.766156,-1.15115 1.621374,-1.96195 2.565625,-2.43241 0.944254,-0.47042 2.593372,-1.03716 4.947342,-1.70019 3.361634,-0.92028 5.389682,-1.7275 6.084144,-2.42169 0.69444,-0.69414 1.067044,-1.6266 1.117831,-2.79736 0.08066,-1.86062 -0.291472,-3.333 -1.116407,-4.41715 -0.824971,-1.08411 -2.034774,-1.67134 -3.629414,-1.76172 -1.304746,-0.0739 -2.301168,0.16307 -2.989258,0.71086 -0.689021,0.56876 -1.247631,1.72121 -1.675842,3.45735 -0.456187,1.90226 -1.315933,2.81759 -2.579239,2.746 -0.455625,-0.0258 -0.94787,-0.28421 -1.47674,-0.77526 -0.52887,-0.491 -0.773811,-1.18599 -0.734829,-2.08498 0.06799,-1.56792 0.9866,-2.88336 2.755843,-3.94628 1.769244,-1.06288 4.155345,-1.50927 7.158298,-1.33917 2.381625,0.13496 4.26704,0.58233 5.656225,1.34212 1.389159,0.75985 2.245908,1.58905 2.570282,2.48761 0.324329,0.89861 0.432111,2.60227 0.323348,5.11097 l -0.545376,8.26824 c -0.138719,3.19864 -0.04574,5.48303 0.278961,6.85317 0.324643,1.37015 1.004725,2.08456 2.040253,2.14322 0.207076,0.0117 0.498355,-0.003 0.873884,-0.0448 l 0.530826,-0.0328 c 0.476313,0.027 0.706769,0.21818 0.691388,0.57358 -0.03539,0.81534 -2.092991,1.10744 -6.172842,0.8763 -1.180487,-0.0669 -1.960636,-0.38876 -2.340452,-0.96565 -0.379822,-0.57688 -0.55237,-1.74456 -0.517624,-3.50302 z m 0.53032,-12.23005 c -0.656684,0.78015 -2.10802,1.69341 -4.354032,2.73976 -2.223513,1.00575 -3.833791,1.99382 -4.830868,2.96424 -0.997989,0.99134 -1.528712,2.21872 -1.592159,3.68213 -0.05712,1.3171 0.282695,2.45757 1.019428,3.42142 0.736729,0.96387 1.684997,1.47867 2.844755,1.54436 1.201171,0.0681 2.345946,-0.23909 3.43435,-0.92141 1.08838,-0.68233 1.911198,-1.58404 2.468465,-2.70513 0.557246,-1.12107 0.884827,-2.81055 0.982753,-5.06841 0.07341,-1.69338 0.08255,-3.57903 0.02731,-5.65696 z"
         style="font-size:64px;fill:#666666;fill-opacity:1"
         id="path5356"
         inkscape:connector-curvature="0" />
      <path
         d="m 113.06344,460.9823 c -0.10191,2.29614 -1.1237,4.00228 -3.06546,5.11838 -1.94176,1.1161 -4.19444,1.30595 -6.7581,0.56953 -1.52073,-0.43686 -3.315058,-1.40337 -5.382901,-2.89943 -1.130386,-0.80583 -1.804186,-1.23994 -2.021446,-1.30236 -0.36934,-0.10608 -0.704453,0.008 -1.005323,0.34268 -0.372206,0.45438 -0.710386,0.63789 -1.014539,0.55051 -0.260696,-0.0749 -0.411126,-0.40375 -0.451276,-0.98661 -0.0401,-0.58286 -0.0267,-1.87703 0.0403,-3.88249 0.0547,-1.72831 0.0713,-2.84616 0.0499,-3.35349 0.0325,-0.73237 0.255086,-1.03931 0.667939,-0.92071 0.23898,0.0686 0.4153,0.30976 0.52896,0.72328 0.747139,2.49993 1.851639,4.7567 3.313475,6.77033 1.461793,2.01362 3.224621,3.31685 5.288551,3.90975 1.45565,0.41812 2.76654,0.37872 3.93273,-0.1182 1.16618,-0.49694 1.78045,-1.44811 1.84284,-2.85351 0.0966,-2.17734 -1.89253,-4.70329 -5.96744,-7.5778 -2.79423,-1.9854 -4.657422,-3.38262 -5.589631,-4.19168 -0.932206,-0.80903 -1.649676,-1.74683 -2.152406,-2.81339 -0.502733,-1.06655 -0.730369,-2.13426 -0.682939,-3.20317 0.0905,-2.03878 1.013539,-3.50264 2.769205,-4.39158 1.755625,-0.88889 3.839181,-0.98698 6.250741,-0.29426 1.78149,0.51175 3.71439,1.57822 5.79871,3.19926 0.34057,0.25826 0.6412,0.42478 0.90194,0.49964 0.21723,0.0625 0.46324,-0.0273 0.73803,-0.26911 0.27386,-0.222 0.48683,-0.31117 0.63894,-0.26751 0.1955,0.0562 0.34428,0.17414 0.44634,0.35375 0.10202,0.17969 0.18287,1.08496 0.24252,2.71582 0.0596,1.63089 0.0666,2.96099 0.0209,3.99026 -0.0281,0.63343 -0.22659,0.89723 -0.59618,0.79098 -0.32593,-0.0935 -0.57387,-0.4555 -0.74389,-1.08571 -0.15013,-0.58437 -0.62629,-1.75353 -1.42853,-3.50755 -0.80228,-1.75398 -1.71015,-2.98702 -2.72366,-3.69916 -1.01353,-0.7121 -2.01998,-1.2117 -3.01938,-1.49876 -1.56427,-0.44933 -2.86143,-0.47114 -3.89151,-0.0654 -1.030126,0.40574 -1.569772,1.16284 -1.618952,2.27129 -0.0308,0.69282 0.14798,1.37563 0.536146,2.04842 0.388188,0.67284 0.755368,1.1993 1.101546,1.57936 0.34616,0.3801 2.3751,1.88509 6.08684,4.51492 2.30331,1.64394 3.81267,2.83428 4.52806,3.57101 0.71536,0.73673 1.30315,1.62224 1.76332,2.6565 0.46014,1.03429 0.6687,2.03638 0.62568,3.0063 z"
         style="font-size:64px;fill:#666666;fill-opacity:1"
         id="path5358"
         inkscape:connector-curvature="0" />
      <path
         d="m 131.52896,450.82834 c -1.72053,4.33598 -3.28348,8.65106 -4.68891,12.94529 -1.08213,3.30637 -1.42284,5.63008 -1.02215,6.97117 0.40067,1.3411 1.28478,2.32335 2.65234,2.94677 0.99285,0.45262 2.21741,0.55908 3.67371,0.31936 0.52322,-0.0858 0.83168,-0.10738 0.92536,-0.0647 0.24351,0.11107 0.3191,0.30765 0.22674,0.58991 -0.15839,0.48386 -1.07415,0.94679 -2.74731,1.38881 -1.67319,0.44203 -3.47457,0.22317 -5.40409,-0.65639 -1.91082,-0.87108 -3.10967,-2.24009 -3.59658,-4.10702 -0.48694,-1.86696 -0.2652,-4.22175 0.66516,-7.06442 0.96993,-2.96361 2.80131,-7.96726 5.49412,-15.01093 -0.11797,-0.10008 -0.9847,-0.57628 -2.60023,-1.42863 l -1.64641,-0.88956 c -0.40556,-0.20801 -0.56213,-0.45314 -0.46973,-0.73543 0.0858,-0.26205 0.38919,-0.367 0.91033,-0.31481 0.86703,0.0478 2.44996,-0.25006 4.74879,-0.89345 2.29879,-0.64333 4.03686,-2.23737 5.21418,-4.78213 0.30583,-0.67146 0.62739,-0.93032 0.96461,-0.77663 0.33718,0.15375 0.41341,0.51287 0.22869,1.07733 -0.0593,0.18148 -0.13142,0.36876 -0.21612,0.5618 -0.31354,0.76068 -0.63861,1.65509 -0.97502,2.68328 l -1.51595,4.7304 6.18359,2.7147 c 1.04904,0.47825 1.54941,0.85695 1.50113,1.1361 -0.32223,0.9189 -0.65412,1.43948 -0.99554,1.56184 -0.97417,-0.44406 -3.47773,-1.41159 -7.51069,-2.90259 z"
         style="font-size:64px;fill:#666666;fill-opacity:1"
         id="path5360"
         inkscape:connector-curvature="0" />
      <path
         d="m 148.12328,465.29903 c -0.45409,1.05469 -0.79317,1.90044 -1.01712,2.53732 -1.06009,3.01462 -1.1898,5.85514 -0.38918,8.52156 0.80059,2.66641 2.32936,4.43115 4.58638,5.2942 2.20193,0.842 4.60623,0.60537 7.21291,-0.70996 0.75203,-0.3627 1.20144,-0.51597 1.34826,-0.45984 0.29355,0.11232 0.3525,0.44789 0.1768,1.00688 -1.21988,1.21944 -2.85306,2.01589 -4.89951,2.38938 -2.04651,0.37352 -4.10649,0.16377 -6.17998,-0.62912 -3.04602,-1.16478 -5.1781,-3.41912 -6.39621,-6.763 -1.21809,-3.34388 -1.14408,-6.95833 0.22206,-10.84337 1.46317,-4.16101 3.84434,-7.18826 7.14352,-9.08175 3.29914,-1.89344 6.26988,-2.33497 8.91224,-1.32458 2.47716,0.94727 4.33321,2.89137 5.56815,5.83222 1.23489,2.94088 1.33724,5.87616 0.30708,8.80587 -0.15681,0.44583 -0.33219,0.75207 -0.52604,0.91876 -0.19396,0.16669 -0.93314,0.004 -2.21759,-0.48673 z m 0.58224,-1.65593 c 2.34061,1.03963 4.6302,1.98763 6.86894,2.84342 l 1.49236,0.46234 c 1.11593,0.37844 2.04768,0.45189 2.79538,0.21998 0.74767,-0.23191 1.32309,-0.92105 1.72623,-2.06747 0.62701,-1.78328 0.64631,-3.54007 0.0578,-5.27041 -0.58856,-1.73031 -1.59845,-2.86913 -3.02969,-3.41646 -1.32119,-0.50521 -2.90465,-0.24967 -4.75039,0.76653 -1.84578,1.01623 -3.56601,3.17028 -5.16069,6.46212 z"
         style="font-size:64px;fill:#666666;fill-opacity:1"
         id="path5362"
         inkscape:connector-curvature="0" />
    </g>
    <path
       style="fill:#666666;fill-opacity:1;stroke:none"
       id="path5425"
       d="m 130.21296,494.66284 c 0.9671,-1.38454 2.20682,-2.56374 3.5613,-3.56173 0.61053,-0.38458 1.37102,-0.91081 2.09492,-1.06674 0.12074,-0.026 0.24668,-0.0271 0.36995,-0.041 0.68215,-0.0764 1.30186,0.24302 1.90363,0.55424 0.49742,0.29947 1.03457,0.50585 1.56651,0.72355 0.51214,0.17668 1.04216,0.16469 1.56194,0.11223 0.39369,-0.0189 0.72918,-0.16707 1.07379,-0.32674 0.64681,-0.53152 1.49812,-1.47587 -1.20047,1.28917 -0.0376,0.0386 0.0697,-0.0829 0.0976,-0.12909 0.0319,-0.0525 0.054,-0.11049 0.0811,-0.16574 0.10907,-0.2881 0.0546,-0.13265 0.15981,-0.46765 0,0 1.78859,-1.48332 1.78859,-1.48332 l 0,0 c -0.0873,0.33661 -0.0445,0.17733 -0.12771,0.47807 -0.005,0.013 -0.12403,0.34742 -0.12595,0.34959 -0.55374,0.6173 -1.20718,1.59727 -2.06864,2.01992 -0.35814,0.15407 -0.73114,0.24583 -1.12868,0.26328 -0.55163,0.0281 -1.11573,0.0163 -1.6495,-0.18794 -0.53602,-0.22458 -1.07028,-0.4548 -1.57817,-0.74503 -0.56337,-0.30018 -1.13886,-0.56481 -1.7766,-0.46388 -0.87296,0.16916 -1.6323,0.6371 -2.34449,1.13663 -0.15663,0.11948 -0.3165,0.23481 -0.46986,0.35844 -0.77563,0.62536 -0.93058,0.91742 0.67674,-0.84633 0.17001,-0.18655 -0.35,0.36621 -0.49379,0.57432 -0.0404,0.0584 -0.0736,0.12164 -0.11046,0.18246 0,0 -1.86168,1.4433 -1.86168,1.4433 z"
       inkscape:connector-curvature="0" />
    <path
       style="fill:#666666;fill-opacity:1;stroke:none"
       id="path5425-1"
       d="m 176.14385,493.73053 c -1.19703,-1.32785 -2.64439,-2.40798 -4.18322,-3.28487 -0.68409,-0.32708 -1.54319,-0.78378 -2.31044,-0.85827 -0.12796,-0.0123 -0.2576,0.002 -0.38642,0.002 -0.71267,0.004 -1.30327,0.41272 -1.87664,0.81117 -0.46774,0.37344 -0.98997,0.65454 -1.50517,0.9468 -0.50083,0.24702 -1.04766,0.29919 -1.58989,0.30787 -0.40761,0.0284 -0.77432,-0.0855 -1.15207,-0.21018 -0.74287,-0.47612 -1.75644,-1.35842 1.42307,1.19973 0.0443,0.0356 -0.0837,-0.078 -0.11928,-0.12287 -0.0404,-0.0509 -0.0718,-0.10879 -0.10767,-0.16319 -0.15428,-0.28753 -0.0755,-0.13185 -0.23274,-0.46883 0,0 -2.05629,-1.33075 -2.05629,-1.33075 l 0,0 c 0.13904,0.34087 0.0716,0.17976 0.20125,0.48367 0.007,0.013 0.17832,0.34769 0.18065,0.3497 0.65974,0.57706 1.47499,1.52069 2.42272,1.85691 0.39084,0.11721 0.78789,0.16749 1.19924,0.13721 0.57138,-0.0379 1.14979,-0.1191 1.66886,-0.3976 0.51838,-0.29996 1.03414,-0.60557 1.51402,-0.97067 0.5355,-0.38223 1.08863,-0.72883 1.75922,-0.70128 0.92251,0.0701 1.77179,0.46608 2.57727,0.90082 0.17852,0.10565 0.35985,0.20659 0.53559,0.31699 0.88908,0.55838 1.09117,0.84447 -0.81972,-0.80124 -0.20209,-0.17404 0.4135,0.33974 0.59176,0.53951 0.05,0.0561 0.0934,0.11804 0.14032,0.17706 0,0 2.12558,1.28002 2.12558,1.28002 z"
       inkscape:connector-curvature="0"
       inkscape:transform-center-x="2.2385235"
       inkscape:transform-center-y="-1.3076782e-005" />
    <g
       style="font-size:40px;font-style:normal;font-variant:normal;font-weight:normal;font-stretch:normal;line-height:125%;letter-spacing:0px;word-spacing:0px;fill:#000000;fill-opacity:1;stroke:none;font-family:Baskerville Old Face;-inkscape-font-specification:Baskerville Old Face"
       id="text5451"
       transform="matrix(0.40633538,0,0,0.48403328,27.244848,267.38216)">
      <path
         d="m 431.35783,439.24585 0.46678,14.63672 -0.89467,0 c -0.28531,-0.63303 -0.50574,-1.11328 -0.66128,-1.44075 -0.9077,-2.09561 -1.64677,-3.65642 -2.21724,-4.68244 -1.01142,-1.83364 -2.4766,-3.51452 -4.39557,-5.04263 -1.45226,-1.15693 -2.95635,-1.99736 -4.51227,-2.52131 -1.55599,-0.52387 -3.30644,-0.78582 -5.25134,-0.78586 -2.93041,4e-5 -5.47181,0.53486 -7.62418,1.60447 -1.8931,0.93871 -3.65652,2.28668 -5.29024,4.04393 -1.63378,1.7573 -2.9693,3.76017 -4.00659,6.00857 -1.47816,3.16532 -2.21724,6.76719 -2.21723,10.80563 -1e-5,3.42726 0.50567,6.51614 1.51705,9.26664 1.01135,2.75054 2.48951,5.05356 4.43447,6.90905 3.57867,3.44908 8.32434,5.17361 14.23699,5.17361 2.95627,0 5.61435,-0.43114 7.97426,-1.2934 2.35983,-0.86227 4.18806,-2.07926 5.48474,-3.65099 1.50404,-1.81185 2.59321,-4.25676 3.26751,-7.33473 l 0.89467,0.13097 c -0.49278,3.44909 -1.60787,6.18869 -3.3453,8.21883 -1.65973,1.94283 -3.94828,3.42725 -6.86566,4.45323 -2.91745,1.02599 -6.29516,1.53898 -10.13314,1.53898 -3.57872,0 -7.00182,-0.4475 -10.2693,-1.34252 -5.21246,-1.44075 -9.28388,-4.04392 -12.21424,-7.80951 -2.93039,-3.76559 -4.39559,-8.25702 -4.39557,-13.4743 -2e-5,-3.99477 0.85576,-7.67851 2.56732,-11.0512 1.71154,-3.37263 4.09734,-6.08495 7.15739,-8.13697 2.35985,-1.57168 5.18001,-2.82143 8.4605,-3.74922 3.28045,-0.92772 6.56739,-1.3916 9.86086,-1.39164 3.1378,4e-5 6.45718,0.50213 9.95811,1.50624 l 3.18971,0.8841 c 0.62233,0.19651 1.16691,0.29474 1.63375,0.2947 0.64826,4e-5 1.17989,-0.22917 1.59485,-0.68763 0.18148,-0.21825 0.4019,-0.57844 0.66128,-1.08057 z"
         style="font-size:64px;fill:#666666;fill-opacity:1;font-family:Baskerville Old Face;-inkscape-font-specification:Baskerville Old Face"
         id="path5456"
         inkscape:connector-curvature="0" />
      <path
         d="m 442.56959,462.44006 c 0,-3.37498 1.24999,-6.3854 3.75,-9.03125 3.04166,-3.20831 6.67707,-4.81247 10.90625,-4.8125 4.22914,3e-5 7.85414,1.60419 10.875,4.8125 2.49997,2.66669 3.74997,5.68752 3.75,9.0625 -3e-5,3.33334 -1.18753,6.30209 -3.5625,8.90625 -2.91669,3.20834 -6.60419,4.8125 -11.0625,4.8125 -4.45835,0 -8.15626,-1.60416 -11.09375,-4.8125 -1.14584,-1.24999 -2.02605,-2.64583 -2.64063,-4.1875 -0.61458,-1.54166 -0.92187,-3.12499 -0.92187,-4.75 z m 5.6875,-0.34375 c -1e-5,3.62501 0.81249,6.69792 2.4375,9.21875 1.83332,2.8125 4.0729,4.21875 6.71875,4.21875 1.12498,0 2.21873,-0.3125 3.28125,-0.9375 1.06248,-0.625 1.97914,-1.5 2.75,-2.625 0.81247,-1.16666 1.46872,-2.6302 1.96875,-4.39062 0.49997,-1.76041 0.74997,-3.46353 0.75,-5.10938 -3e-5,-1.70832 -0.26565,-3.43227 -0.79688,-5.17187 -0.53127,-1.73957 -1.24481,-3.23436 -2.14062,-4.48438 -1.70836,-2.35414 -3.8021,-3.53122 -6.28125,-3.53125 -2.35418,3e-5 -4.38543,1.23961 -6.09375,3.71875 -1.72918,2.47919 -2.59376,5.51043 -2.59375,9.09375 z"
         style="font-size:64px;fill:#666666;fill-opacity:1;font-family:Baskerville Old Face;-inkscape-font-specification:Baskerville Old Face"
         id="path5458"
         inkscape:connector-curvature="0" />
      <path
         d="m 503.10232,477.97337 c -0.12441,-1.03442 -0.13988,-2.12263 -0.0464,-3.26466 -1.61811,0.87094 -3.12501,1.46879 -4.52071,1.79355 -1.39574,0.32475 -2.87224,0.42341 -4.42952,0.29599 -3.15613,-0.25826 -5.77813,-1.4239 -7.86601,-3.49691 -1.33418,-1.32154 -2.31106,-2.92216 -2.93065,-4.80187 -0.61961,-1.8797 -0.84105,-3.89928 -0.66435,-6.05874 0.18689,-2.28402 0.77504,-4.36277 1.76447,-6.23624 0.98941,-1.87345 2.28429,-3.3927 3.88464,-4.55776 2.53019,-1.79962 5.42525,-2.56607 8.6852,-2.29934 1.57804,0.12915 2.90901,0.46799 3.9929,1.01652 1.08385,0.54858 2.32402,1.48617 3.7205,2.81279 l 0.94552,-11.55513 c 0.18516,-2.26323 -0.0552,-3.92378 -0.72113,-4.98165 -0.66597,-1.0578 -1.86065,-1.65723 -3.58403,-1.79829 l 0.0612,-0.7475 9.59889,-0.43738 -2.95379,36.09811 c -0.19202,2.34632 0.045,4.0484 0.71094,5.10623 0.66591,1.05784 1.86059,1.65726 3.58403,1.79829 l -0.0637,0.77865 z m 0.7465,-14.48737 c 0.23613,-2.88618 0.28867,-5.06101 0.15762,-6.5245 -0.13111,-1.46347 -0.48111,-2.67835 -1.05001,-3.64466 -0.49608,-0.83488 -1.19696,-1.52977 -2.10262,-2.08467 -0.9057,-0.55485 -1.85687,-0.87306 -2.85352,-0.95464 -2.22176,-0.18177 -4.22737,0.69926 -6.01685,2.6431 -1.07786,1.166 -1.96241,2.58818 -2.65367,4.26655 -0.69128,1.67839 -1.11166,3.43119 -1.26117,5.25841 -0.14613,1.78571 -0.0297,3.55631 0.34921,5.3118 0.37892,1.7555 0.96468,3.28232 1.7573,4.58045 1.38399,2.24534 3.20761,3.46062 5.4709,3.64581 1.0797,0.0883 2.1296,-0.0975 3.1497,-0.55748 1.02006,-0.46 1.87026,-1.14294 2.55059,-2.04882 0.70445,-0.94569 1.24115,-2.14027 1.61013,-3.58374 0.36892,-1.44347 0.66638,-3.546 0.89239,-6.30761 z"
         style="font-size:64px;fill:#666666;fill-opacity:1;font-family:Baskerville Old Face;-inkscape-font-specification:Baskerville Old Face"
         id="path5460"
         inkscape:connector-curvature="0" />
      <path
         d="m 528.79922,464.07447 c -0.24355,0.99486 -0.4016,1.71856 -0.47401,2.17112 -0.2864,1.78974 -0.30392,3.58031 -0.0526,5.37168 0.25134,1.7914 0.73907,3.32522 1.46319,4.6015 0.74137,1.30014 1.74338,2.38882 3.00607,3.26601 1.26266,0.8772 2.64487,1.43595 4.14661,1.67626 1.11085,0.17775 2.19477,0.16132 3.25176,-0.0493 1.05696,-0.21063 1.96726,-0.59242 2.73092,-1.14538 0.85576,-0.6015 1.67783,-1.65146 2.46619,-3.14989 l 0.58258,0.31476 c -0.92004,2.3213 -2.3574,3.95322 -4.31212,4.89578 -1.95476,0.94255 -4.39271,1.18011 -7.31386,0.71267 -2.53033,-0.4049 -4.63644,-1.15333 -6.31834,-2.24531 -1.68193,-1.09197 -3.01701,-2.57151 -4.00523,-4.43861 -1.37662,-2.6044 -1.79334,-5.60375 -1.25018,-8.99808 0.74066,-4.62859 2.97768,-7.99449 6.71107,-10.09769 2.71301,-1.52799 5.61239,-2.04511 8.69815,-1.55136 1.64571,0.26337 3.12109,0.80011 4.42617,1.61023 1.30503,0.81015 2.35211,1.84802 3.14124,3.11358 1.22519,1.96833 1.6304,4.2485 1.21566,6.84051 z m 13.70813,0.9593 c 0.18515,-2.08019 0.0581,-3.72511 -0.38131,-4.93475 -0.39416,-1.09686 -1.00718,-2.01252 -1.83906,-2.74696 -0.83193,-0.73441 -1.77246,-1.18556 -2.82158,-1.35347 -1.76918,-0.28307 -3.439,0.23037 -5.00945,1.54032 -1.57048,1.31 -2.66348,3.09724 -3.27901,5.36174 z"
         style="font-size:64px;fill:#666666;fill-opacity:1;font-family:Baskerville Old Face;-inkscape-font-specification:Baskerville Old Face"
         id="path5462"
         inkscape:connector-curvature="0" />
    </g>
    <path
       d="m 148.42691,491.33816 c 0,-1.15653 0.39219,-2.18813 1.17648,-3.09488 0.95424,-1.09942 2.09477,-1.64912 3.42155,-1.64914 1.32681,2e-5 2.46406,0.54972 3.41177,1.64914 0.7843,0.9139 1.17646,1.94906 1.17647,3.1056 -1e-5,1.14225 -0.37258,2.15957 -1.11765,3.05196 -0.91504,1.09942 -2.0719,1.64922 -3.47059,1.64922 -1.39867,0 -2.55882,-0.5498 -3.48035,-1.64922 -0.35949,-0.42835 -0.63565,-0.90667 -0.82844,-1.43496 -0.19279,-0.52828 -0.28924,-1.07087 -0.28924,-1.62772 z m 1.78432,-0.11779 c 0,1.2422 0.25489,2.29523 0.7647,3.15906 0.57516,0.96378 1.27776,1.44574 2.10784,1.44574 0.35294,0 0.69609,-0.10715 1.02941,-0.32132 0.33332,-0.21419 0.62092,-0.51404 0.86274,-0.89954 0.25489,-0.39979 0.46079,-0.90132 0.61765,-1.50457 0.15685,-0.60325 0.23528,-1.18688 0.23528,-1.75086 0,-0.58541 -0.0832,-1.17618 -0.24999,-1.77229 -0.16668,-0.59611 -0.39052,-1.10843 -0.67155,-1.53678 -0.53596,-0.8067 -1.19281,-1.21007 -1.9706,-1.21008 -0.73857,1e-5 -1.3758,0.42479 -1.91177,1.27433 -0.54246,0.84964 -0.81371,1.88839 -0.81371,3.11631 z"
       style="font-size:64px;font-style:normal;font-variant:normal;font-weight:normal;font-stretch:normal;line-height:125%;letter-spacing:0px;word-spacing:0px;fill:#666666;fill-opacity:1;stroke:none;font-family:Baskerville Old Face;-inkscape-font-specification:Baskerville Old Face"
       id="path5379-1"
       inkscape:connector-curvature="0" />
  </g>
</svg>
